<?xml version="1.0" encoding="utf-8"?>
<!-- Generator: Adobe Illustrator 23.0.5, SVG Export Plug-In . SVG Version: 6.00 Build 0)  -->
<svg version="1.1" id="Layer_1" xmlns="http://www.w3.org/2000/svg" xmlns:xlink="http://www.w3.org/1999/xlink" x="0px" y="0px"
	 viewBox="0 0 1417.32 1417.32" style="enable-background:new 0 0 1417.32 1417.32;" xml:space="preserve">
<style type="text/css">
	.st0{fill:#EAAA21;}
</style>
<path class="st0" d="M0,637.27c17.34-31.95,15.8-67.96,26.63-101.51C100.23,307.9,256.49,146.2,498.94,60.96
	c265.31-93.27,519.51-63.47,756.33,80.39c46.82,28.44,88.93,63.1,127.06,100.9c55.51,55.04,34.42,135.52-38.32,153.2
	c-24.02,5.84-41.07,2.71-57.15-17.24c-59.7-74.08-135.31-132.31-228.45-167.62c-216.87-82.23-426.63-68.34-623.21,51.25
	c-130.33,79.29-215.56,190.29-249.08,330.48c-42.61,178.16-0.21,339.76,131.84,477.21c192.84,200.73,497.59,253.61,760.36,134.32
	c84.27-38.26,157.22-91.07,212.34-161.7c14.19-18.18,30.02-21.83,51.99-17.85c71.25,12.93,98.97,92.15,50.02,147.15
	c-39.36,44.22-87.07,80.79-138.21,112.99c-294.34,185.29-678.36,176.53-960.53-24.49C136.88,1148.04,43.76,999.65,10.46,820.18
	C8.32,808.69,11.1,795.31,0,785.85C0,736.33,0,686.8,0,637.27z"/>
<path class="st0" d="M832.53,545.96c0,47.73-0.01,95.47,0,143.2c0.02,38.16,37.49,72.21,80.24,72.35
	c70.8,0.22,141.75,2.67,212.34-0.83c47.94-2.38,73.15,27.17,104.9,48.89c8.38,5.74,2.2,10.46-2.39,15.07
	c-31.54,31.63-61.9,58.99-117.59,53.67c-63.31-6.05-127.87-0.73-191.86-1.75c-23.12-0.37-39.85,5.88-55.96,21.58
	c-42.16,41.1-108.84,48.47-165.65,20.75c-48.09-23.46-73.45-73.49-62.94-123.34c5.4-25.63,20.33-45.99,42.54-61.28
	c17.31-11.91,22.96-26.16,22.81-45.5c-0.78-98.11-0.39-196.23-0.34-294.35c0.01-21.92,39.07-65.42,61.65-68.95
	c6.68-1.04,10.41,3.81,15.38,6.18c41,19.49,64.05,45.95,57.96,92.45C828.37,464.18,832.53,505.29,832.53,545.96z"/>
</svg>
